:version 1.10
:name ASF
:units
  mass 1
  length 1
  angle deg
:documentation
  ASF file generated by Kaydara
:root
  axis xyz
  order  tx ty tz rx ry rz
  position 0 0 0
  orientation 0 0 0
:bonedata
  begin
    id 1
    name LeftUpLegDummy
    direction 1 -2.30186e-007 -8.31532e-007
    length 2.93387
    axis 0 0 0 xyz
  end
  begin
    id 2
    name LeftUpLeg
    direction -1.82929e-007 -1 -1.48925e-009
    length 17.3336
    axis -3.48766 0.00143442 -0.000521554 xyz
    dof rx ry rz
  end
  begin
    id 3
    name LeftLeg
    direction -1.82929e-007 -1 -5.23717e-011
    length 14.9995
    axis 3.68178 -0.00654042 -0.000282425 xyz
    dof rx ry rz
  end
  begin
    id 4
    name LeftFoot
    direction 8.31532e-007 -4.54534e-011 1
    length 6.74421
    axis 1.87234e-006 4.66016e-005 -5.96866e-006 xyz
    dof rx ry rz
  end
  begin
    id 5
    name LeftToes
    direction 0.00818058 -0.00485161 0.999955
    length 3.85048
    axis 1.06247e-005 4.65869e-005 -5.96999e-006 xyz
    dof rx ry rz
  end
  begin
    id 6
    name SpineDummy
    direction -5.8607e-008 0.943407 -0.331637
    length 5.93572
    axis 0 0 0 xyz
  end
  begin
    id 7
    name Spine
    direction -1.04988e-007 0.999988 0.00495137
    length 10.1015
    axis -0.001389 0.000121417 6.61666e-006 xyz
    dof rx ry rz
  end
  begin
    id 8
    name Spine1
    direction 0 0 0
    length 0
    axis -0.001389 0.00012144 6.56766e-006 xyz
    dof rx ry rz
  end
  begin
    id 9
    name RightShoulderDummy
    direction -0.98348 0.17941 -0.0240696
    length 3.59882
    axis -0.001389 0.00012144 6.56766e-006 xyz
  end
  begin
    id 10
    name RightShoulder
    direction -0.978693 0.204882 0.0135597
    length 2.70001
    axis 0.215806 0.000203631 -0.00679732 xyz
    dof rx ry rz
  end
  begin
    id 11
    name RightArm
    direction -1 3.85509e-006 8.31394e-007
    length 10.2459
    axis -23.2009 -0.134239 -0.964098 xyz
    dof rx ry rz
  end
  begin
    id 12
    name RightForeArm
    direction -1 3.85569e-006 8.3129e-007
    length 8.16799
    axis -9.92322 0.0658061 0.17887 xyz
    dof rx ry rz
  end
  begin
    id 13
    name RightHand
    direction -0.992843 -0.0414604 0.112003
    length 5.28593
    axis -0.00960638 0.00330669 -0.185225 xyz
    dof rx ry rz
  end
  begin
    id 14
    name LeftShoulder1Dummy
    direction 0.983523 0.179172 -0.0240748
    length 3.59866
    axis -0.001389 0.00012144 6.56766e-006 xyz
  end
  begin
    id 15
    name LeftShoulder1
    direction 0.978627 0.205195 0.0135605
    length 2.70019
    axis -0.001389 0.00012144 6.57583e-006 xyz
    dof rx ry rz
  end
  begin
    id 16
    name LeftArm
    direction 1 3.51895e-006 -8.60188e-007
    length 10.2459
    axis -23.1894 0.134785 0.967513 xyz
    dof rx ry rz
  end
  begin
    id 17
    name LeftForeArm
    direction 1 3.51921e-006 -7.32029e-007
    length 8.16799
    axis -9.91835 -0.0656957 -0.177789 xyz
    dof rx ry rz
  end
  begin
    id 18
    name LeftHand
    direction 0.992938 -0.0411636 0.11126
    length 5.32135
    axis -0.00960237 -0.00340661 0.185177 xyz
    dof rx ry rz
  end
  begin
    id 19
    name HEadDummy
    direction 1.01974e-006 0.999861 -0.016675
    length 2.99946
    axis -0.001389 0.00012144 6.56766e-006 xyz
  end
  begin
    id 20
    name HEad
    direction -0.0222689 0.980941 0.193023
    length 5.12695
    axis -0.001389 0.00012144 6.56766e-006 xyz
    dof rx ry rz
  end
  begin
    id 21
    name RightUpLegDummy
    direction -1 2.30186e-007 8.31532e-007
    length 2.93387
    axis 0 0 0 xyz
  end
  begin
    id 22
    name RightUpLeg
    direction -1.82966e-007 -1 1.56832e-007
    length 17.3336
    axis -3.4909 -0.000906625 0.00028951 xyz
    dof rx ry rz
  end
  begin
    id 23
    name RightLeg
    direction -1.82786e-007 -1 -1.80317e-007
    length 14.9995
    axis 3.68513 0.0193739 -0.131021 xyz
    dof rx ry rz
  end
  begin
    id 24
    name RightFoot
    direction 8.31721e-007 -4.63324e-011 1
    length 6.74421
    axis 4.81691e-005 -0.120479 -0.188785 xyz
    dof rx ry rz
  end
  begin
    id 25
    name RightToes
    direction 0.00124746 -0.014064 0.9999
    length 3.85082
    axis 0.000481921 0.542163 -0.142575 xyz
    dof rx ry rz
  end
:hierarchy
  begin
    root LeftUpLegDummy SpineDummy RightUpLegDummy
    LeftUpLegDummy LeftUpLeg
    LeftUpLeg LeftLeg
    LeftLeg LeftFoot
    LeftFoot LeftToes
    SpineDummy Spine
    Spine Spine1
    Spine1 RightShoulderDummy LeftShoulder1Dummy HEadDummy
    RightShoulderDummy RightShoulder
    RightShoulder RightArm
    RightArm RightForeArm
    RightForeArm RightHand
    LeftShoulder1Dummy LeftShoulder1
    LeftShoulder1 LeftArm
    LeftArm LeftForeArm
    LeftForeArm LeftHand
    HEadDummy HEad
    RightUpLegDummy RightUpLeg
    RightUpLeg RightLeg
    RightLeg RightFoot
    RightFoot RightToes
  end

:SAMPLES-PER-SECOND 30
:FULLY-SPECIFIED
:DEGREES
68
root  2.9001 34.4669 29.6774 6.08275 9.59859 -0.145675
LeftUpLeg  -11.7316 6.41032 0.969541
LeftLeg  13.2843 0.408214 0.0675191
LeftFoot  0.225416 -0.010619 -0.000818682
LeftToes  -14.2101 2.60077e-006 -1.42232e-007
Spine  1.57602 1.52048 -2.52299
Spine1  2.79539 3.0067 -4.71397
RightShoulder  0.0210577 5.2178 4.35834
RightArm  -40.5586 7.68245 51.8817
RightForeArm  114.358 79.355 108.189
RightHand  0.492711 -1.61878 -33.3578
LeftShoulder1  0.0645572 0.135106 -9.76077
LeftArm  -21.5605 10.4768 -65.7684
LeftForeArm  30.9433 -17.6227 -3.20275
LeftHand  0.071927 2.46787 2.96005
HEad  -9.63643 -24.3327 3.55081
RightUpLeg  -11.0975 -6.76617 -5.33
RightLeg  12.0394 6.62342 0.972464
RightFoot  2.89487 -0.00463323 0.375142
RightToes  -36.0938 -0.186546 -0.291006
69
root  2.88241 34.4828 29.7318 5.92741 10.0775 -0.265728
LeftUpLeg  -11.524 6.21072 1.1669
LeftLeg  13.1921 0.138291 0.0216359
LeftFoot  0.28684 -0.0106661 -0.00321654
LeftToes  -14.3149 2.60077e-006 -1.42232e-007
Spine  1.53141 1.69493 -2.67683
Spine1  2.72359 3.3304 -4.992
RightShoulder  0.0164627 5.15002 3.83904
RightArm  -44.4068 13.8152 47.7996
RightForeArm  92.9109 79.8866 90.6951
RightHand  1.0043 -3.8361 -28.9147
LeftShoulder1  0.0653766 0.0373862 -9.27989
LeftArm  -21.7696 9.98894 -65.9406
LeftForeArm  30.8837 -18.0567 -3.2872
LeftHand  0.0730102 2.31543 3.07534
HEad  -9.69285 -25.5843 4.09728
RightUpLeg  -10.5638 -6.85475 -5.18823
RightLeg  11.5507 6.265 0.865745
RightFoot  3.06915 -0.00481728 0.369958
RightToes  -35.9678 -0.186106 -0.29033
70
root  2.85598 34.4942 29.7813 5.77605 10.4772 -0.375677
LeftUpLeg  -11.3164 5.9609 1.36952
LeftLeg  13.0938 -0.024111 -0.00551681
LeftFoot  0.3376 -0.010716 -0.0054816
LeftToes  -14.4229 2.60077e-006 -1.42232e-007
Spine  1.49463 1.93167 -2.81251
Spine1  2.654 3.7925 -5.24952
RightShoulder  0.0140785 5.38364 3.21999
RightArm  -49.0876 19.3603 43.1262
RightForeArm  61.5449 78.8204 64.2612
RightHand  1.50122 -6.43722 -25.834
LeftShoulder1  0.0661779 -0.169327 -8.76653
LeftArm  -21.8442 9.67661 -66.0987
LeftForeArm  30.8465 -18.3344 -3.34145
LeftHand  0.0739145 2.19194 3.17646
HEad  -9.87085 -26.7223 4.60805
RightUpLeg  -10.1685 -7.00339 -5.03405
RightLeg  11.2977 6.01922 0.804953
RightFoot  3.12427 -0.00454618 0.358554
RightToes  -35.7758 -0.185648 -0.28955
71
root  2.82128 34.5065 29.8284 5.66699 10.8572 -0.506001
LeftUpLeg  -11.1833 5.72033 1.60486
LeftLeg  13.0444 -0.193934 -0.0334898
LeftFoot  0.388834 -0.0107661 -0.00765241
LeftToes  -14.6221 2.60077e-006 -1.42232e-007
Spine  1.45741 2.2302 -2.92177
Spine1  2.56818 4.38951 -5.46741
RightShoulder  0.0119307 5.68052 2.61065
RightArm  -54.0606 24.0473 37.8559
RightForeArm  36.983 75.0739 41.8008
RightHand  1.61671 -7.42394 -24.1485
LeftShoulder1  0.0670158 -0.413432 -8.38481
LeftArm  -21.6663 9.42452 -66.0894
LeftForeArm  30.8426 -18.3888 -3.3521
LeftHand  0.0739658 2.1148 3.20374
HEad  -10.1214 -27.7559 5.05373
RightUpLeg  -9.8803 -7.25819 -4.8391
RightLeg  11.1499 5.89382 0.772825
RightFoot  3.15791 -0.0045967 0.352893
RightToes  -35.7041 -0.185107 -0.288651
72
root  2.77811 34.5208 29.8753 5.6196 11.3233 -0.640499
LeftUpLeg  -11.1164 5.53463 1.84794
LeftLeg  12.9618 -0.485384 -0.0808146
LeftFoot  0.471068 -0.0107968 -0.0100358
LeftToes  -14.7836 2.60077e-006 -1.42232e-007
Spine  1.42331 2.53832 -3.05435
Spine1  2.4862 5.0122 -5.73924
RightShoulder  0.0100396 5.93423 1.9593
RightArm  -59.3958 27.9443 32.0893
RightForeArm  24.609 68.9754 27.4816
RightHand  1.5222 -7.78056 -21.7195
LeftShoulder1  0.0679449 -0.751606 -7.91942
LeftArm  -21.5072 9.26968 -65.9909
LeftForeArm  31.0071 -18.2895 -3.33258
LeftHand  0.0723411 2.18639 3.12031
HEad  -10.5534 -28.7325 5.65883
RightUpLeg  -9.62803 -7.44877 -4.62228
RightLeg  10.9674 5.6249 0.71954
RightFoot  3.1893 -0.0040769 0.339035
RightToes  -35.5256 -0.183641 -0.287618
73
root  2.72542 34.5315 29.9215 5.6044 11.8671 -0.730447
LeftUpLeg  -11.1029 5.27159 2.05382
LeftLeg  12.8957 -0.752871 -0.12362
LeftFoot  0.56897 -0.0107885 -0.0129387
LeftToes  -14.9977 2.60077e-006 -1.42232e-007
Spine  1.40624 2.85683 -3.19359
Spine1  2.4255 5.66812 -6.03764
RightShoulder  0.00841887 6.14174 1.43503
RightArm  -64.8319 31.3719 25.4646
RightForeArm  16.127 60.8949 18.5392
RightHand  1.47593 -9.05057 -18.1044
LeftShoulder1  0.0691781 -1.16215 -7.55387
LeftArm  -21.5087 9.24782 -65.7215
LeftForeArm  31.2847 -18.0843 -3.29233
LeftHand  0.073496 2.10691 3.21431
HEad  -11.2282 -29.7571 6.23925
RightUpLeg  -9.41064 -7.58904 -4.43385
RightLeg  10.823 5.24075 0.657215
RightFoot  3.17335 -0.00287988 0.315226
RightToes  -35.3873 -0.181842 -0.286437
74
root  2.66308 34.541 29.9637 5.59766 12.35 -0.798018
LeftUpLeg  -11.1257 5.064 2.25182
LeftLeg  12.8861 -1.01968 -0.166716
LeftFoot  0.682554 -0.0106975 -0.0170383
LeftToes  -15.2359 2.60077e-006 -1.42232e-007
Spine  1.42133 3.18314 -3.31248
Spine1  2.40242 6.36011 -6.31812
RightShoulder  0.00690213 6.57988 0.554095
RightArm  -70.7962 33.8771 19.2593
RightForeArm  10.3793 51.9276 13.033
RightHand  1.08008 -9.92954 -12.0075
LeftShoulder1  0.0706517 -1.57008 -7.38781
LeftArm  -21.5459 9.42479 -65.2229
LeftForeArm  31.4889 -17.9046 -3.25718
LeftHand  0.0737284 2.21476 3.28187
HEad  -12.0321 -30.5465 6.68374
RightUpLeg  -9.24891 -7.63722 -4.24583
RightLeg  10.7303 4.81194 0.595748
RightFoot  3.16236 -0.00165114 0.291391
RightToes  -34.9873 -0.179764 -0.285091
75
root  2.59463 34.5601 30.0203 5.67368 12.8434 -0.8904
LeftUpLeg  -11.1288 4.91081 2.46087
LeftLeg  12.6732 -1.25892 -0.200653
LeftFoot  0.902785 -0.0104216 -0.0239243
LeftToes  -15.4315 2.60077e-006 -1.42232e-007
Spine  1.38395 3.47624 -3.45709
Spine1  2.27951 6.9822 -6.65243
RightShoulder  0.00570486 6.83895 -0.432609
RightArm  -76.1583 35.5704 14.6254
RightForeArm  8.24229 43.533 9.64643
RightHand  0.624916 -9.88909 -6.83936
LeftShoulder1  0.0720054 -1.89534 -7.23244
LeftArm  -21.7944 9.75208 -64.6245
LeftForeArm  31.9221 -17.5397 -3.18601
LeftHand  0.0749756 2.11259 3.32922
HEad  -12.6698 -31.1769 7.20975
RightUpLeg  -9.07412 -7.68513 -4.00362
RightLeg  10.4485 4.36095 0.5184
RightFoot  3.31806 -0.00110962 0.278597
RightToes  -34.6368 -0.177461 -0.282867
76
root  2.52115 34.5825 30.0912 5.83371 13.3591 -0.92113
LeftUpLeg  -11.1126 4.67974 2.61234
LeftLeg  12.2946 -1.41035 -0.215019
LeftFoot  1.23753 -0.00996788 -0.0334888
LeftToes  -15.7016 2.60077e-006 -1.42232e-007
Spine  1.29472 3.71863 -3.64199
Spine1  2.07013 7.48692 -7.05106
RightShoulder  0.00483596 6.94115 -1.51493
RightArm  -79.5964 36.241 12.0293
RightForeArm  8.40533 37.1334 7.66811
RightHand  0.349784 -9.76699 -3.7197
LeftShoulder1  0.0728789 -2.01052 -6.8649
LeftArm  -22.5476 10.1044 -64.3003
LeftForeArm  32.8816 -16.8925 -3.06037
LeftHand  0.0769268 2.07923 3.44599
HEad  -13.1187 -31.6316 7.62935
RightUpLeg  -8.9723 -8.02508 -3.81655
RightLeg  10.2344 4.23886 0.487912
RightFoot  3.41811 -0.00143527 0.279544
RightToes  -34.3488 -0.174985 -0.28065
77
root  2.43788 34.595 30.1623 5.95631 13.8916 -0.96975
LeftUpLeg  -11.1521 4.34077 2.81805
LeftLeg  12.0987 -1.51853 -0.226068
LeftFoot  1.43204 -0.00972473 -0.0396957
LeftToes  -15.8998 2.60077e-006 -1.42232e-007
Spine  1.2229 3.95902 -3.79396
Spine1  1.90695 7.98272 -7.37785
RightShoulder  0.00422491 6.81808 -1.94293
RightArm  -80.1537 36.3393 10.5259
RightForeArm  8.56451 33.2931 6.64211
RightHand  0.130007 -10.442 -1.05203
LeftShoulder1  0.0729118 -2.14471 -6.4236
LeftArm  -23.8487 10.4871 -64.2071
LeftForeArm  33.9342 -16.1249 -2.91251
LeftHand  0.0803935 2.07764 3.677
HEad  -13.5219 -32.0635 7.99367
RightUpLeg  -8.90989 -8.34435 -3.59578
RightLeg  10.1787 4.07434 0.465044
RightFoot  3.34865 -0.000776438 0.265392
RightToes  -33.9332 -0.171922 -0.278397
78
root  2.34922 34.5957 30.2448 5.97202 14.4341 -1.03903
LeftUpLeg  -11.2 4.05079 3.08417
LeftLeg  12.1674 -1.74924 -0.262345
LeftFoot  1.47652 -0.00951904 -0.0452362
LeftToes  -16.1378 2.60077e-006 -1.42232e-007
Spine  1.2011 4.10942 -3.79739
Spine1  1.85546 8.29813 -7.39866
RightShoulder  0.00370771 6.69069 -1.76283
RightArm  -78.4326 36.2796 10.0039
RightForeArm  8.62901 32.13 6.34999
RightHand  -0.060464 -10.718 1.01395
LeftShoulder1  0.0709036 -2.02218 -6.49766
LeftArm  -24.9676 11.0045 -63.9984
LeftForeArm  34.3644 -15.5307 -2.79916
LeftHand  0.0827179 2.21673 3.83053
HEad  -13.868 -32.1928 8.05698
RightUpLeg  -8.78397 -8.56561 -3.34921
RightLeg  10.2373 3.77693 0.435136
RightFoot  3.17871 0.000680616 0.238938
RightToes  -33.68 -0.16952 -0.276398
